<svg width="375" height="375" viewBox="0 0 375 375" fill="none" xmlns="http://www.w3.org/2000/svg">
<g filter="url(#filter0_d)">
<path d="M218.849 79L271.574 135.854L302.999 170.006L303 171.652L266.56 168.593C245.71 166.842 228.779 151.026 225.615 130.343L217.76 79.0006L218.849 79Z" fill="black"/>
</g>
<path d="M218.849 79L271.574 135.854L302.999 170.006L303 171.652L266.56 168.593C245.71 166.842 228.779 151.026 225.615 130.343L217.76 79.0006L218.849 79Z" fill="#A6A6A6"/>
<g filter="url(#filter1_d)">
<path fill-rule="evenodd" clip-rule="evenodd" d="M187.5 62C118.188 62 62 118.188 62 187.5C62 256.812 118.188 313 187.5 313C256.812 313 313 256.812 313 187.5C313 118.188 256.812 62 187.5 62Z" fill="url(#paint0_linear)"/>
<path d="M68.122 187.5C68.122 121.569 121.569 68.122 187.5 68.122V55.878C114.807 55.878 55.878 114.807 55.878 187.5H68.122ZM187.5 306.878C121.569 306.878 68.122 253.431 68.122 187.5H55.878C55.878 260.193 114.807 319.122 187.5 319.122V306.878ZM306.878 187.5C306.878 253.431 253.431 306.878 187.5 306.878V319.122C260.193 319.122 319.122 260.193 319.122 187.5H306.878ZM187.5 68.122C253.431 68.122 306.878 121.569 306.878 187.5H319.122C319.122 114.807 260.193 55.878 187.5 55.878V68.122Z" fill="white"/>
</g>
<path d="M205.851 128.478L211.783 117.775C211.859 117.638 211.908 117.487 211.926 117.331C211.943 117.175 211.93 117.017 211.887 116.866C211.844 116.715 211.771 116.574 211.673 116.451C211.576 116.328 211.455 116.226 211.317 116.15C211.04 115.996 210.713 115.959 210.408 116.046C210.103 116.134 209.846 116.339 209.692 116.616L203.694 127.437C198.576 125.194 193.048 124.035 187.46 124.035C181.872 124.035 176.345 125.194 171.227 127.437L165.228 116.616C165.074 116.339 164.817 116.134 164.512 116.046C164.207 115.959 163.88 115.996 163.603 116.15C163.326 116.304 163.121 116.561 163.033 116.866C162.946 117.171 162.983 117.498 163.137 117.775L169.07 128.478C163.422 131.262 158.651 135.547 155.278 140.864C151.906 146.181 150.063 152.324 149.951 158.619H224.969C224.858 152.323 223.015 146.181 219.642 140.864C216.27 135.547 211.498 131.262 205.851 128.478V128.478ZM170.148 144.892C169.528 144.892 168.923 144.709 168.408 144.364C167.892 144.02 167.491 143.531 167.254 142.958C167.017 142.386 166.955 141.756 167.076 141.149C167.196 140.541 167.495 139.983 167.933 139.545C168.371 139.107 168.929 138.808 169.537 138.687C170.144 138.567 170.774 138.629 171.347 138.866C171.919 139.103 172.408 139.504 172.753 140.019C173.097 140.535 173.28 141.14 173.28 141.76C173.28 142.59 172.949 143.386 172.362 143.974C171.775 144.561 170.978 144.891 170.148 144.892V144.892ZM204.772 144.892C204.153 144.892 203.547 144.709 203.032 144.364C202.517 144.02 202.115 143.531 201.878 142.958C201.641 142.386 201.579 141.756 201.7 141.149C201.821 140.541 202.119 139.983 202.557 139.545C202.995 139.107 203.554 138.808 204.161 138.687C204.769 138.567 205.399 138.629 205.971 138.866C206.543 139.103 207.033 139.504 207.377 140.019C207.721 140.535 207.905 141.14 207.905 141.76C207.904 142.59 207.574 143.386 206.986 143.974C206.399 144.561 205.603 144.891 204.772 144.892V144.892ZM149.951 215.955C149.951 218.36 150.906 220.666 152.607 222.367C154.307 224.068 156.614 225.023 159.019 225.023H165.037V243.572C165.034 244.678 165.249 245.774 165.67 246.797C166.091 247.82 166.71 248.749 167.491 249.533C168.273 250.316 169.201 250.937 170.222 251.361C171.244 251.785 172.339 252.004 173.446 252.004C174.552 252.004 175.647 251.785 176.669 251.361C177.69 250.937 178.618 250.316 179.4 249.533C180.181 248.749 180.8 247.82 181.221 246.797C181.642 245.774 181.857 244.678 181.854 243.572V225.023H193.066V243.572C193.063 244.678 193.278 245.774 193.699 246.797C194.121 247.82 194.74 248.749 195.521 249.533C196.302 250.316 197.23 250.937 198.252 251.361C199.273 251.785 200.369 252.004 201.475 252.004C202.581 252.004 203.676 251.785 204.698 251.361C205.72 250.937 206.648 250.316 207.429 249.533C208.21 248.749 208.829 247.82 209.25 246.797C209.671 245.774 209.887 244.678 209.884 243.572V225.023H215.902C218.307 225.023 220.613 224.068 222.314 222.367C224.015 220.666 224.97 218.36 224.97 215.955V161.586H149.951V215.955ZM138.409 160.143C136.18 160.146 134.042 161.033 132.466 162.609C130.889 164.186 130.003 166.323 130 168.552V203.589C129.997 204.695 130.212 205.791 130.634 206.814C131.055 207.837 131.674 208.766 132.455 209.55C133.236 210.333 134.164 210.954 135.186 211.378C136.207 211.802 137.303 212.021 138.409 212.021C139.515 212.021 140.61 211.802 141.632 211.378C142.654 210.954 143.582 210.333 144.363 209.55C145.144 208.766 145.763 207.837 146.184 206.814C146.606 205.791 146.821 204.695 146.818 203.589V168.552C146.815 166.323 145.929 164.186 144.352 162.609C142.776 161.033 140.638 160.146 138.409 160.143V160.143ZM236.511 160.143C234.282 160.146 232.145 161.033 230.568 162.609C228.992 164.186 228.105 166.323 228.102 168.552V203.589C228.099 204.695 228.315 205.791 228.736 206.814C229.157 207.837 229.776 208.766 230.557 209.55C231.338 210.333 232.266 210.954 233.288 211.378C234.31 211.802 235.405 212.021 236.511 212.021C237.618 212.021 238.713 211.802 239.735 211.378C240.756 210.954 241.684 210.333 242.465 209.55C243.247 208.766 243.865 207.837 244.287 206.814C244.708 205.791 244.923 204.695 244.92 203.589V168.552C244.918 166.323 244.031 164.186 242.455 162.609C240.878 161.033 238.741 160.146 236.511 160.143V160.143Z" fill="white"/>
<defs>
<filter id="filter0_d" x="179.67" y="56.1458" width="146.185" height="153.597" filterUnits="userSpaceOnUse" color-interpolation-filters="sRGB">
<feFlood flood-opacity="0" result="BackgroundImageFix"/>
<feColorMatrix in="SourceAlpha" type="matrix" values="0 0 0 0 0 0 0 0 0 0 0 0 0 0 0 0 0 0 127 0"/>
<feOffset dx="-7.61807" dy="7.61807"/>
<feGaussianBlur stdDeviation="15.2361"/>
<feColorMatrix type="matrix" values="0 0 0 0 0 0 0 0 0 0 0 0 0 0 0 0 0 0 0.378824 0"/>
<feBlend mode="normal" in2="BackgroundImageFix" result="effect1_dropShadow"/>
<feBlend mode="normal" in="SourceGraphic" in2="effect1_dropShadow" result="shape"/>
</filter>
<filter id="filter1_d" x="0.780491" y="0.780491" width="373.439" height="373.439" filterUnits="userSpaceOnUse" color-interpolation-filters="sRGB">
<feFlood flood-opacity="0" result="BackgroundImageFix"/>
<feColorMatrix in="SourceAlpha" type="matrix" values="0 0 0 0 0 0 0 0 0 0 0 0 0 0 0 0 0 0 127 0"/>
<feOffset/>
<feGaussianBlur stdDeviation="27.5488"/>
<feColorMatrix type="matrix" values="0 0 0 0 0 0 0 0 0 0 0 0 0 0 0 0 0 0 0.25 0"/>
<feBlend mode="normal" in2="BackgroundImageFix" result="effect1_dropShadow"/>
<feBlend mode="normal" in="SourceGraphic" in2="effect1_dropShadow" result="shape"/>
</filter>
<linearGradient id="paint0_linear" x1="187.5" y1="62" x2="187.5" y2="313" gradientUnits="userSpaceOnUse">
<stop stop-color="#43FF99"/>
<stop offset="1" stop-color="#C93DA4"/>
</linearGradient>
</defs>
</svg>
