<svg width="375" height="375" viewBox="0 0 375 375" fill="none" xmlns="http://www.w3.org/2000/svg">
<g filter="url(#filter0_d)">
<path d="M218.849 78.9314L271.574 135.785L302.999 169.937L303 171.584L266.56 168.524C245.71 166.774 228.779 150.957 225.615 130.275L217.76 78.932L218.849 78.9314Z" fill="black"/>
</g>
<path d="M218.849 78.9314L271.574 135.785L302.999 169.937L303 171.584L266.56 168.524C245.71 166.774 228.779 150.957 225.615 130.275L217.76 78.932L218.849 78.9314Z" fill="#A6A6A6"/>
<g filter="url(#filter1_d)">
<path fill-rule="evenodd" clip-rule="evenodd" d="M187.5 62C118.188 62 62 118.188 62 187.5C62 256.812 118.188 313 187.5 313C256.812 313 313 256.812 313 187.5C313 118.188 256.812 62 187.5 62Z" fill="url(#paint0_linear)"/>
<path d="M68.122 187.5C68.122 121.569 121.569 68.122 187.5 68.122V55.878C114.807 55.878 55.878 114.807 55.878 187.5H68.122ZM187.5 306.878C121.569 306.878 68.122 253.431 68.122 187.5H55.878C55.878 260.193 114.807 319.122 187.5 319.122V306.878ZM306.878 187.5C306.878 253.431 253.431 306.878 187.5 306.878V319.122C260.193 319.122 319.122 260.193 319.122 187.5H306.878ZM187.5 68.122C253.431 68.122 306.878 121.569 306.878 187.5H319.122C319.122 114.807 260.193 55.878 187.5 55.878V68.122Z" fill="white"/>
</g>
<path fill-rule="evenodd" clip-rule="evenodd" d="M224.809 180.721C224.646 163.649 238.758 155.421 239.395 155.031C231.471 143.414 219.107 141.824 214.705 141.638C204.194 140.582 194.193 147.834 188.856 147.834C183.535 147.834 175.295 141.798 166.585 141.97C155.116 142.13 144.552 148.628 138.648 158.886C126.748 179.547 135.606 210.146 147.21 226.907C152.874 235.092 159.643 244.325 168.52 243.991C177.082 243.656 180.306 238.469 190.633 238.469C200.968 238.469 203.87 243.991 212.927 243.821C222.116 243.656 227.958 235.461 233.587 227.243C240.093 217.724 242.773 208.509 242.929 208.03C242.731 207.958 224.995 201.149 224.809 180.721L224.809 180.721Z" fill="#FEFEFE"/>
<path fill-rule="evenodd" clip-rule="evenodd" d="M207.826 130.563C212.543 124.845 215.708 116.911 214.841 109C208.051 109.27 199.819 113.532 194.955 119.232C190.583 124.29 186.757 132.366 187.795 140.112C195.369 140.701 203.106 136.269 207.826 130.563V130.563Z" fill="#FEFEFE"/>
<defs>
<filter id="filter0_d" x="179.67" y="56.0772" width="146.185" height="153.597" filterUnits="userSpaceOnUse" color-interpolation-filters="sRGB">
<feFlood flood-opacity="0" result="BackgroundImageFix"/>
<feColorMatrix in="SourceAlpha" type="matrix" values="0 0 0 0 0 0 0 0 0 0 0 0 0 0 0 0 0 0 127 0"/>
<feOffset dx="-7.61807" dy="7.61807"/>
<feGaussianBlur stdDeviation="15.2361"/>
<feColorMatrix type="matrix" values="0 0 0 0 0 0 0 0 0 0 0 0 0 0 0 0 0 0 0.378824 0"/>
<feBlend mode="normal" in2="BackgroundImageFix" result="effect1_dropShadow"/>
<feBlend mode="normal" in="SourceGraphic" in2="effect1_dropShadow" result="shape"/>
</filter>
<filter id="filter1_d" x="0.780491" y="0.780491" width="373.439" height="373.439" filterUnits="userSpaceOnUse" color-interpolation-filters="sRGB">
<feFlood flood-opacity="0" result="BackgroundImageFix"/>
<feColorMatrix in="SourceAlpha" type="matrix" values="0 0 0 0 0 0 0 0 0 0 0 0 0 0 0 0 0 0 127 0"/>
<feOffset/>
<feGaussianBlur stdDeviation="27.5488"/>
<feColorMatrix type="matrix" values="0 0 0 0 0 0 0 0 0 0 0 0 0 0 0 0 0 0 0.25 0"/>
<feBlend mode="normal" in2="BackgroundImageFix" result="effect1_dropShadow"/>
<feBlend mode="normal" in="SourceGraphic" in2="effect1_dropShadow" result="shape"/>
</filter>
<linearGradient id="paint0_linear" x1="187.5" y1="62" x2="187.5" y2="313" gradientUnits="userSpaceOnUse">
<stop stop-color="#15D5FF"/>
<stop offset="1" stop-color="#C93DA4"/>
</linearGradient>
</defs>
</svg>
