<?xml version="1.0" encoding="UTF-8"?>
<svg width="154px" height="42px" viewBox="0 0 154 42" version="1.1" xmlns="http://www.w3.org/2000/svg" xmlns:xlink="http://www.w3.org/1999/xlink">
    <!-- Generator: Sketch 61 (89581) - https://sketch.com -->
    <title>Artboard Copy 6</title>
    <desc>Created with Sketch.</desc>
    <defs>
        <linearGradient x1="99.3429371%" y1="49.3429371%" x2="0.657062861%" y2="49.3429371%" id="linearGradient-1">
            <stop stop-color="#663DFF" offset="0%"></stop>
            <stop stop-color="#AA00FF" offset="50.3020133%"></stop>
            <stop stop-color="#CC4499" offset="100%"></stop>
        </linearGradient>
        <path d="M131.159,-0.000139791649 L143.026,12.7248602 L143.026884,23.829696 C143.026884,29.297315 138.594503,33.729696 133.126884,33.729696 L9.9,33.729696 C4.43238098,33.729696 -2.88312347e-15,29.297315 0,23.829696 L0,9.9 C1.10676663e-15,4.43238098 4.43238098,1.00715768e-13 9.9,9.79350336e-14 L131.159,-0.000139791649 Z" id="path-2"></path>
        <filter x="-7.3%" y="-31.1%" width="114.7%" height="162.3%" filterUnits="objectBoundingBox" id="filter-3">
            <feMorphology radius="1.5" operator="dilate" in="SourceAlpha" result="shadowSpreadOuter1"></feMorphology>
            <feOffset dx="0" dy="0" in="shadowSpreadOuter1" result="shadowOffsetOuter1"></feOffset>
            <feGaussianBlur stdDeviation="2" in="shadowOffsetOuter1" result="shadowBlurOuter1"></feGaussianBlur>
            <feComposite in="shadowBlurOuter1" in2="SourceAlpha" operator="out" result="shadowBlurOuter1"></feComposite>
            <feColorMatrix values="0 0 0 0 0   0 0 0 0 0   0 0 0 0 0  0 0 0 0.17111014 0" type="matrix" in="shadowBlurOuter1"></feColorMatrix>
        </filter>
        <path d="M130.521248,1.459458 L137.442248,8.922458 L141.567248,13.405458 L141.567426,13.621608 L136.784071,13.2200025 C134.047192,12.9902169 131.824723,10.9140711 131.40936,8.19915274 L130.378248,1.45954047 L130.521248,1.459458 Z" id="path-4"></path>
        <filter x="-67.0%" y="-45.2%" width="216.2%" height="206.9%" filterUnits="objectBoundingBox" id="filter-5">
            <feOffset dx="-1" dy="1" in="SourceAlpha" result="shadowOffsetOuter1"></feOffset>
            <feGaussianBlur stdDeviation="2" in="shadowOffsetOuter1" result="shadowBlurOuter1"></feGaussianBlur>
            <feColorMatrix values="0 0 0 0 0   0 0 0 0 0   0 0 0 0 0  0 0 0 0.378824301 0" type="matrix" in="shadowBlurOuter1"></feColorMatrix>
        </filter>
    </defs>
    <g id="Artboard-Copy-6" stroke="none" stroke-width="1" fill="none" fill-rule="evenodd">
        <g id="Group-2" transform="translate(4.950000, 3.960000)">
            <g id="Group-4">
                <g id="Combined-Shape">
                    <use fill="black" fill-opacity="1" filter="url(#filter-3)" xlink:href="#path-2"></use>
                    <path stroke="#FFFFFF" stroke-width="1.945944" d="M130.735958,0.972832696 L9.9,0.972972 C4.96973857,0.972972 0.972972,4.96973857 0.972972,9.9 L0.972972,23.829696 C0.972972,28.7599574 4.96973857,32.756724 9.9,32.756724 L133.126884,32.756724 C138.057145,32.756724 142.053912,28.7599574 142.053912,23.8297735 L142.053059,13.1081744 L130.735958,0.972832696 Z" stroke-linejoin="square" fill="url(#linearGradient-1)" fill-rule="evenodd"></path>
                    <use xlink:href="#path-2"></use>
                </g>
                <g id="Group" transform="translate(8.594586, 6.324318)">
                    <path d="M24.8529481,16.6728482 L26.907865,8.56993738 L26.9545676,8.56993738 L29.1028898,16.6728482 L32.5121837,16.6728482 L36.3184502,4.60021162 L32.9091563,4.60021162 L30.6907801,12.7731764 L30.6440775,12.7731764 L28.5891606,4.60021162 L25.3666773,4.60021162 L23.3584631,12.7965277 L23.3117605,12.7965277 L21.0933843,4.60021162 L17.5906851,4.60021162 L21.4203029,16.6728482 L24.8529481,16.6728482 Z M39.985906,16.9764155 C40.7331485,16.9764155 41.4648234,16.8674426 42.1809308,16.6494969 C42.8970382,16.4315511 43.5197403,16.0501461 44.049037,15.5052818 C44.0646046,15.70766 44.0918478,15.9061463 44.1307667,16.1007407 C44.1696856,16.2953351 44.2202801,16.4860376 44.2825503,16.6728482 L44.2825503,16.6728482 L47.6451415,16.6728482 C47.489466,16.4237674 47.3804932,16.0501461 47.318223,15.5519844 C47.2559527,15.0538228 47.2248176,14.5323098 47.2248176,13.9874455 L47.2248176,13.9874455 L47.2248176,7.70593824 C47.2248176,6.9742633 47.0613583,6.38658821 46.7344398,5.94291298 C46.4075212,5.49923774 45.9871973,5.15285971 45.473468,4.90377888 C44.9597388,4.65469805 44.3915232,4.48734686 43.7688211,4.40172533 C43.146119,4.31610379 42.5312007,4.27329302 41.9240662,4.27329302 C41.2546614,4.27329302 40.5891486,4.33945512 39.9275276,4.47177931 C39.2659067,4.6041035 38.6704478,4.82594112 38.141151,5.13729216 C37.6118543,5.4486432 37.1759628,5.86118333 36.8334767,6.37491254 C36.4909905,6.88864176 36.2963961,7.53469517 36.2496935,8.31307277 L36.2496935,8.31307277 L39.5655821,8.31307277 C39.6278523,7.65923558 39.845798,7.19220902 40.2194192,6.91199309 C40.5930405,6.63177715 41.1067697,6.49166918 41.7606069,6.49166918 C42.0563904,6.49166918 42.3327144,6.51112862 42.589579,6.5500475 C42.8464436,6.58896638 43.0721731,6.66680414 43.2667675,6.78356078 C43.4613619,6.90031742 43.6170375,7.06377672 43.7337941,7.27393867 C43.8505507,7.48410062 43.9089291,7.76820845 43.9089291,8.12626214 C43.9244966,8.46874829 43.8233075,8.72950478 43.6053618,8.90853163 C43.3874161,9.08755848 43.0916326,9.22377456 42.7180113,9.31717987 C42.3443901,9.41058518 41.9162824,9.48063917 41.4336883,9.52734182 C40.9510942,9.57404448 40.4607163,9.63631469 39.9625546,9.71415245 C39.464393,9.79199021 38.9701232,9.89707118 38.4797453,10.0293954 C37.9893674,10.1617196 37.553476,10.3602059 37.1720709,10.6248542 C36.7906659,10.8895026 36.4793149,11.2436644 36.2380178,11.6873397 C35.9967208,12.1310149 35.8760722,12.6953387 35.8760722,13.3803109 C35.8760722,14.003013 35.9811532,14.5400936 36.1913152,14.9915526 C36.4014771,15.4430116 36.6933687,15.8166328 37.06699,16.1124163 C37.4406112,16.4081998 37.8765027,16.6261455 38.3746643,16.7662535 C38.872826,16.9063615 39.4099065,16.9764155 39.985906,16.9764155 Z M41.2235263,14.7813906 C40.958878,14.7813906 40.7020134,14.7580393 40.4529325,14.7113366 C40.2038517,14.664634 39.985906,14.5829043 39.7990953,14.4661477 C39.6122847,14.3493911 39.464393,14.1898236 39.3554201,13.9874455 C39.2464472,13.7850673 39.1919608,13.5359865 39.1919608,13.240203 C39.1919608,12.9288519 39.2464472,12.6719873 39.3554201,12.4696092 C39.464393,12.267231 39.6083928,12.0998798 39.7874197,11.9675556 C39.9664465,11.8352314 40.1766085,11.7301504 40.4179055,11.6523127 C40.6592026,11.5744749 40.9043915,11.5122047 41.1534724,11.465502 C41.4181207,11.4187994 41.6827691,11.3798805 41.9474175,11.3487454 C42.2120659,11.3176103 42.4650386,11.2786914 42.7063357,11.2319888 C42.9476327,11.1852861 43.1733622,11.1269078 43.3835242,11.0568538 C43.5936861,10.9867998 43.7688211,10.8895026 43.9089291,10.7649622 L43.9089291,10.7649622 L43.9089291,12.0025826 C43.9089291,12.1893932 43.8894696,12.438474 43.8505507,12.7498251 C43.8116319,13.0611761 43.7065509,13.3686353 43.5353078,13.6722025 C43.3640647,13.9757698 43.0994164,14.2365263 42.7413627,14.454472 C42.383309,14.6724178 41.8773635,14.7813906 41.2235263,14.7813906 Z M55.1422151,16.6728482 L59.2286975,4.60021162 L55.9361603,4.60021162 L53.3908655,12.8432304 L53.3441629,12.8432304 L50.7988681,4.60021162 L47.3195202,4.60021162 L51.4527053,16.6728482 L55.1422151,16.6728482 Z M64.8576649,16.9764155 C66.2276094,16.9764155 67.3951758,16.6650644 68.3603641,16.0423623 C69.3255523,15.4196603 70.0416597,14.384418 70.5086862,12.9366357 L67.5897702,12.9366357 C67.4807974,13.310257 67.1850139,13.6644188 66.7024198,13.9991211 C66.2198257,14.3338235 65.6438262,14.5011747 64.9744215,14.5011747 C64.0403684,14.5011747 63.324261,14.2598776 62.8260993,13.7772835 C62.3279377,13.2946894 62.0555055,12.5163118 62.0088029,11.4421507 L70.7188482,11.4421507 C70.7811184,10.5080976 70.7032806,9.61296336 70.4853349,8.756748 C70.2673892,7.90053264 69.9132274,7.13772259 69.4228495,6.46831786 C68.9324716,5.79891312 68.3058776,5.26572446 67.5430676,4.86875189 C66.7802575,4.47177931 65.8851233,4.27329302 64.8576649,4.27329302 C63.9391793,4.27329302 63.1024234,4.43675232 62.3473971,4.76367091 C61.5923708,5.0905895 60.9424255,5.53815662 60.3975612,6.10637227 C59.8526969,6.67458792 59.432373,7.34788454 59.1365895,8.12626214 C58.840806,8.90463974 58.6929143,9.74528755 58.6929143,10.6482056 C58.6929143,11.5822587 58.8369141,12.438474 59.1249138,13.2168516 C59.4129136,13.9952292 59.8215618,14.664634 60.3508586,15.2250659 C60.8801553,15.7854977 61.5262087,16.2174973 62.2890188,16.5210646 C63.0518288,16.8246318 63.9080442,16.9764155 64.8576649,16.9764155 Z M67.4029596,9.3405312 L62.0088029,9.3405312 C62.0243704,9.10701792 62.074965,8.84236954 62.1605865,8.54658605 C62.246208,8.25080256 62.3940998,7.97058662 62.6042617,7.70593824 C62.8144237,7.44128986 63.0946396,7.21945224 63.4449095,7.04042539 C63.7951794,6.86139854 64.2349628,6.77188512 64.7642596,6.77188512 C65.5737723,6.77188512 66.1770149,6.98983085 66.5739875,7.4257223 C66.9709601,7.86161376 67.2472841,8.49988339 67.4029596,9.3405312 Z M76.6980855,21.2263572 C78.0835976,21.2263572 79.1888938,21.0395465 80.013974,20.6659253 C80.8390543,20.292304 81.4695402,19.8369531 81.9054316,19.2998726 C82.3413231,18.762792 82.6254309,18.1829007 82.7577551,17.5601987 C82.8900793,16.9374966 82.9562414,16.3848485 82.9562414,15.9022544 L82.9562414,4.60021162 L79.8038121,4.60021162 L79.8038121,6.21145325 L79.7571094,6.21145325 C79.3523531,5.51091341 78.8502995,5.01275174 78.2509488,4.71696826 C77.651598,4.42118477 76.9549501,4.27329302 76.1610049,4.27329302 C75.3203571,4.27329302 74.5770065,4.43675232 73.9309531,4.76367091 C73.2848997,5.0905895 72.7439273,5.53037285 72.3080358,6.08302094 C71.8721443,6.63566904 71.5413339,7.27393867 71.3156044,7.99782984 C71.0898749,8.72172101 70.9770101,9.47285539 70.9770101,10.251233 C70.9770101,11.0763132 71.0743073,11.8585827 71.2689017,12.5980415 C71.4634961,13.3375002 71.7709553,13.9835536 72.1912792,14.5362017 C72.6116031,15.0888498 73.1486836,15.5247412 73.8025208,15.843876 C74.456358,16.1630109 75.2347356,16.3225783 76.1376536,16.3225783 C76.8693285,16.3225783 77.5659765,16.1707946 78.2275974,15.8672274 C78.8892184,15.5636601 79.3990557,15.0927417 79.7571094,14.454472 L79.8038121,14.454472 L79.8038121,16.0423623 C79.8193796,16.8985777 79.6131096,17.6069013 79.1850019,18.1673332 C78.7568942,18.7277651 78.0758138,19.007981 77.1417607,19.007981 C76.5501937,19.007981 76.0286807,18.8873325 75.5772217,18.6460354 C75.1257627,18.4047384 74.8221954,17.9727388 74.6665199,17.3500367 L71.3739827,17.3500367 C71.4206853,18.035009 71.6113878,18.6226841 71.9460902,19.113062 C72.2807926,19.6034399 72.7011165,20.0043043 73.2070619,20.3156554 C73.7130074,20.6270064 74.2734392,20.8566278 74.8883575,21.0045195 C75.5032758,21.1524113 76.1065185,21.2263572 76.6980855,21.2263572 Z M76.9783014,13.8239862 C76.4645722,13.8239862 76.0364645,13.7150133 75.6939784,13.4970676 C75.3514922,13.2791219 75.0751682,12.9989059 74.8650062,12.6564198 C74.6548443,12.3139336 74.5069525,11.9286367 74.421331,11.500529 C74.3357094,11.0724214 74.2928987,10.6404218 74.2928987,10.2045303 C74.2928987,9.75307133 74.3434932,9.32107176 74.4446823,8.90853163 C74.5458714,8.4959915 74.7093307,8.13015403 74.9350602,7.81101922 C75.1607897,7.4918844 75.4410056,7.23891168 75.775708,7.05210106 C76.1104104,6.86529043 76.5112748,6.77188512 76.9783014,6.77188512 C77.5231657,6.77188512 77.9746247,6.87307421 78.3326784,7.07545238 C78.6907321,7.27783056 78.9787318,7.55026272 79.1966776,7.89274886 C79.4146233,8.23523501 79.5702988,8.6283157 79.6637041,9.07199093 C79.7571094,9.51566616 79.8038121,9.98658461 79.8038121,10.4847463 C79.8038121,10.9206377 79.7454338,11.3370697 79.6286771,11.7340423 C79.5119205,12.1310149 79.3367855,12.4851767 79.1032722,12.7965277 C78.869759,13.1078788 78.5739755,13.3569596 78.2159218,13.5437702 C77.8578681,13.7305809 77.445328,13.8239862 76.9783014,13.8239862 Z M88.7019654,16.9764155 C89.4025052,16.9764155 90.0874775,16.8207399 90.7568822,16.5093889 C91.426287,16.1980379 91.9711513,15.6920924 92.3914752,14.9915526 L92.4615292,14.9915526 L92.4615292,16.6728482 L95.6139584,16.6728482 L95.6139584,4.60021162 L92.2980699,4.60021162 L92.2980699,10.9284215 C92.2980699,12.1582581 92.0956917,13.0417167 91.6909353,13.5787972 C91.286179,14.1158778 90.6323418,14.384418 89.7294238,14.384418 C88.9354786,14.384418 88.3828305,14.1392291 88.0714795,13.6488512 C87.7601285,13.1584733 87.6044529,12.4151227 87.6044529,11.4187994 L87.6044529,4.60021162 L84.2885644,4.60021162 L84.2885644,12.0259339 C84.2885644,12.7731764 84.3547265,13.4542568 84.4870506,14.0691751 C84.6193748,14.6840934 84.8489962,15.2056064 85.1759148,15.6337141 C85.5028334,16.0618218 85.9504005,16.3926323 86.5186162,16.6261455 C87.0868318,16.8596588 87.8146149,16.9764155 88.7019654,16.9764155 Z M100.215467,2.73210538 L100.215467,0 L96.8995788,0 L96.8995788,2.73210538 L100.215467,2.73210538 Z M100.215467,16.6728482 L100.215467,4.60021162 L96.8995788,4.60021162 L96.8995788,16.6728482 L100.215467,16.6728482 Z M106.404867,16.9764155 C107.198812,16.9764155 107.911027,16.8324156 108.541513,16.5444159 C109.171999,16.2564162 109.681836,15.7854977 110.071025,15.1316605 L110.117728,15.1316605 L110.117728,16.6728482 L113.270157,16.6728482 L113.270157,0 L109.954268,0 L109.954268,6.07134528 L109.907566,6.07134528 C109.533945,5.4797783 109.024107,5.03221118 108.378054,4.72864392 C107.732,4.42507666 107.05092,4.27329302 106.334813,4.27329302 C105.447462,4.27329302 104.669085,4.44842798 103.99968,4.7986979 C103.330275,5.14896782 102.773735,5.6121025 102.33006,6.18810192 C101.886385,6.76410134 101.551682,7.42961419 101.325953,8.18464046 C101.100223,8.93966674 100.987358,9.72193622 100.987358,10.5314489 C100.987358,11.3720967 101.100223,12.1816094 101.325953,12.959987 C101.551682,13.7383646 101.886385,14.4272288 102.33006,15.0265796 C102.773735,15.6259303 103.338059,16.1007407 104.023031,16.4510106 C104.708003,16.8012805 105.501949,16.9764155 106.404867,16.9764155 Z M107.222163,14.5011747 C106.708434,14.5011747 106.26865,14.3883099 105.902813,14.1625804 C105.536976,13.9368509 105.233408,13.6410674 104.992111,13.27523 C104.750814,12.9093925 104.575679,12.4929605 104.466706,12.0259339 C104.357733,11.5589074 104.303247,11.0918808 104.303247,10.6248542 C104.303247,10.1266926 104.353842,9.64799035 104.455031,9.18874757 C104.55622,8.72950478 104.719679,8.32085654 104.945409,7.96280285 C105.171138,7.60474915 105.470813,7.31674944 105.844435,7.09880371 C106.218056,6.88085798 106.677299,6.77188512 107.222163,6.77188512 C107.767027,6.77188512 108.218486,6.88085798 108.57654,7.09880371 C108.934594,7.31674944 109.226485,7.60085726 109.452215,7.95112718 C109.677944,8.3013971 109.837512,8.70615346 109.930917,9.16539624 C110.024322,9.62463902 110.071025,10.1033412 110.071025,10.6015029 C110.071025,11.0996646 110.024322,11.5822587 109.930917,12.0492852 C109.837512,12.5163118 109.681836,12.9327438 109.463891,13.2985813 C109.245945,13.6644188 108.954053,13.9563104 108.588216,14.1742561 C108.222378,14.3922018 107.767027,14.5011747 107.222163,14.5011747 Z M120.019988,16.9764155 C121.389933,16.9764155 122.557499,16.6650644 123.522687,16.0423623 C124.487876,15.4196603 125.203983,14.384418 125.671009,12.9366357 L122.752093,12.9366357 C122.643121,13.310257 122.347337,13.6644188 121.864743,13.9991211 C121.382149,14.3338235 120.806149,14.5011747 120.136745,14.5011747 C119.202692,14.5011747 118.486584,14.2598776 117.988423,13.7772835 C117.490261,13.2946894 117.217829,12.5163118 117.171126,11.4421507 L125.881171,11.4421507 C125.943442,10.5080976 125.865604,9.61296336 125.647658,8.756748 C125.429712,7.90053264 125.075551,7.13772259 124.585173,6.46831786 C124.094795,5.79891312 123.468201,5.26572446 122.705391,4.86875189 C121.942581,4.47177931 121.047447,4.27329302 120.019988,4.27329302 C119.101503,4.27329302 118.264747,4.43675232 117.50972,4.76367091 C116.754694,5.0905895 116.104749,5.53815662 115.559884,6.10637227 C115.01502,6.67458792 114.594696,7.34788454 114.298913,8.12626214 C114.003129,8.90463974 113.855237,9.74528755 113.855237,10.6482056 C113.855237,11.5822587 113.999237,12.438474 114.287237,13.2168516 C114.575237,13.9952292 114.983885,14.664634 115.513182,15.2250659 C116.042479,15.7854977 116.688532,16.2174973 117.451342,16.5210646 C118.214152,16.8246318 119.070367,16.9764155 120.019988,16.9764155 Z M122.565283,9.3405312 L117.171126,9.3405312 C117.186694,9.10701792 117.237288,8.84236954 117.32291,8.54658605 C117.408531,8.25080256 117.556423,7.97058662 117.766585,7.70593824 C117.976747,7.44128986 118.256963,7.21945224 118.607233,7.04042539 C118.957503,6.86139854 119.397286,6.77188512 119.926583,6.77188512 C120.736095,6.77188512 121.339338,6.98983085 121.736311,7.4257223 C122.133283,7.86161376 122.409607,8.49988339 122.565283,9.3405312 Z" id="waveguide" fill="#FFFFFF" fill-rule="nonzero"></path>
                    <g id="Group-10" transform="translate(0.000000, 4.672860)">
                        <path d="M0.890031027,5.38889253e-14 C0.399818849,5.38889253e-14 8.08333877e-14,0.39200798 8.08333877e-14,0.872643363 L8.08333877e-14,12.2170071 L1.78006205,12.2170071 L1.78006205,0.872643363 C1.78006205,0.39200798 1.38024321,5.38889253e-14 0.890031027,5.38889253e-14 Z" id="Shape" fill="#FFFFFF" fill-rule="nonzero"></path>
                        <path d="M14.1720325,12.2170071 C14.6622447,12.2170071 15.0620636,11.8249991 15.0620636,11.3443637 L15.0620636,0 L13.2820015,0 L13.2820015,11.3443637 C13.2820015,11.8249991 13.6818204,12.2170071 14.1720325,12.2170071 Z" id="Shape" fill="#FFFFFF" fill-rule="nonzero"></path>
                        <path d="M4.24476337,12.2170071 L4.24476337,2.26519523 L4.24476337,2.26519523 C4.24476337,1.36841978 4.97174351,0.641439624 5.86851897,0.641439624 C6.64608534,0.641439624 7.31451254,1.1926775 7.46256785,1.95601822 L7.46256785,1.95601822 L7.46256785,5.23465838 L7.46256785,6.98556085 L7.46256785,10.2071479 L7.46256785,10.2071479 L7.46256785,10.2071479 C7.59439375,11.0908308 8.41762625,11.7003313 9.30130907,11.5685054 C10.0938159,11.4502809 10.6803723,10.7697325 10.6803723,9.96845599 L10.6803723,4.0734064 L10.6803723,0" id="Path-3" stroke="#FFFFFF" stroke-width="1.67356262"></path>
                    </g>
                </g>
            </g>
            <g id="Combined-Shape">
                <use fill="black" fill-opacity="1" filter="url(#filter-5)" xlink:href="#path-4"></use>
                <use fill="#A6A6A6" fill-rule="evenodd" xlink:href="#path-4"></use>
            </g>
            <path d="M130.539248,1.27897692e-14 L138.503248,8.507 L143.026248,13.3781205 L143.026884,13.621608 L136.318248,13.621608 C133.037677,13.621608 130.378248,10.9621794 130.378248,7.681608 L130.378248,0.000212842774 L130.539248,1.27897692e-14 Z" id="Combined-Shape" fill="#FFFFFF"></path>
        </g>
    </g>
</svg>