<svg width="375" height="375" viewBox="0 0 375 375" fill="none" xmlns="http://www.w3.org/2000/svg">
<g filter="url(#filter0_d)">
<path d="M218.849 79L271.574 135.854L302.999 170.006L303 171.652L266.56 168.593C245.71 166.842 228.779 151.026 225.615 130.343L217.76 79.0006L218.849 79Z" fill="black"/>
</g>
<path d="M218.849 79L271.574 135.854L302.999 170.006L303 171.652L266.56 168.593C245.71 166.842 228.779 151.026 225.615 130.343L217.76 79.0006L218.849 79Z" fill="#A6A6A6"/>
<g filter="url(#filter1_d)">
<path fill-rule="evenodd" clip-rule="evenodd" d="M187.5 62C118.188 62 62 118.188 62 187.5C62 256.812 118.188 313 187.5 313C256.812 313 313 256.812 313 187.5C313 118.188 256.812 62 187.5 62Z" fill="url(#paint0_linear)"/>
<path d="M68.122 187.5C68.122 121.569 121.569 68.122 187.5 68.122V55.878C114.807 55.878 55.878 114.807 55.878 187.5H68.122ZM187.5 306.878C121.569 306.878 68.122 253.431 68.122 187.5H55.878C55.878 260.193 114.807 319.122 187.5 319.122V306.878ZM306.878 187.5C306.878 253.431 253.431 306.878 187.5 306.878V319.122C260.193 319.122 319.122 260.193 319.122 187.5H306.878ZM187.5 68.122C253.431 68.122 306.878 121.569 306.878 187.5H319.122C319.122 114.807 260.193 55.878 187.5 55.878V68.122Z" fill="white"/>
</g>
<path d="M241.091 128H133.909C127.359 128 122 133.359 122 139.909V211.364C122 217.914 127.359 223.273 133.909 223.273H175.591L163.682 241.136V247.091H211.318V241.136L199.409 223.273H241.091C247.641 223.273 253 217.914 253 211.364V139.909C253 133.359 247.641 128 241.091 128ZM241.091 199.455H133.909V139.909H241.091V199.455Z" fill="white"/>
<defs>
<filter id="filter0_d" x="179.67" y="56.1458" width="146.185" height="153.597" filterUnits="userSpaceOnUse" color-interpolation-filters="sRGB">
<feFlood flood-opacity="0" result="BackgroundImageFix"/>
<feColorMatrix in="SourceAlpha" type="matrix" values="0 0 0 0 0 0 0 0 0 0 0 0 0 0 0 0 0 0 127 0"/>
<feOffset dx="-7.61807" dy="7.61807"/>
<feGaussianBlur stdDeviation="15.2361"/>
<feColorMatrix type="matrix" values="0 0 0 0 0 0 0 0 0 0 0 0 0 0 0 0 0 0 0.378824 0"/>
<feBlend mode="normal" in2="BackgroundImageFix" result="effect1_dropShadow"/>
<feBlend mode="normal" in="SourceGraphic" in2="effect1_dropShadow" result="shape"/>
</filter>
<filter id="filter1_d" x="0.780491" y="0.780491" width="373.439" height="373.439" filterUnits="userSpaceOnUse" color-interpolation-filters="sRGB">
<feFlood flood-opacity="0" result="BackgroundImageFix"/>
<feColorMatrix in="SourceAlpha" type="matrix" values="0 0 0 0 0 0 0 0 0 0 0 0 0 0 0 0 0 0 127 0"/>
<feOffset/>
<feGaussianBlur stdDeviation="27.5488"/>
<feColorMatrix type="matrix" values="0 0 0 0 0 0 0 0 0 0 0 0 0 0 0 0 0 0 0.25 0"/>
<feBlend mode="normal" in2="BackgroundImageFix" result="effect1_dropShadow"/>
<feBlend mode="normal" in="SourceGraphic" in2="effect1_dropShadow" result="shape"/>
</filter>
<linearGradient id="paint0_linear" x1="187.5" y1="62" x2="187.5" y2="313" gradientUnits="userSpaceOnUse">
<stop stop-color="#FF1515"/>
<stop offset="1" stop-color="#C93DA4"/>
</linearGradient>
</defs>
</svg>
